REM DIRINDEX 1\2,1\3,1\4,1\5
REM DIRNAME "folder01","folder02","folder03","folder04","folder05"
TITLE ""
FILE "P1Q_t_1239-1248.mp3" MP3
  TRACK 01 AUDIO
    TITLE "3:cjc173_4684"
    INDEX 01 00:00:00
  TRACK 02 AUDIO
    TITLE "0:"
    INDEX 01 00:01:39
  TRACK 03 AUDIO
    TITLE "4:cjc173_4685"
    INDEX 01 00:01:61
  TRACK 04 AUDIO
    TITLE "0:"
    INDEX 01 00:02:70
  TRACK 05 AUDIO
    TITLE "5:cjc173_4686"
    INDEX 01 00:03:15
  TRACK 06 AUDIO
    TITLE "0:"
    INDEX 01 00:06:72
  TRACK 07 AUDIO
    TITLE "3:cjc173_4687"
    INDEX 01 00:07:46
  TRACK 08 AUDIO
    TITLE "0:"
    INDEX 01 00:08:74
  TRACK 09 AUDIO
    TITLE "4:cjc173_4688"
    INDEX 01 00:09:19
  TRACK 10 AUDIO
    TITLE "0:"
    INDEX 01 00:11:65
  TRACK 11 AUDIO
    TITLE "5:cjc173_4689"
    INDEX 01 00:12:10
  TRACK 12 AUDIO
    TITLE "0:"
    INDEX 01 00:15:75
  TRACK 13 AUDIO
    TITLE "3:cjc173_4690"
    INDEX 01 00:16:45
  TRACK 14 AUDIO
    TITLE "0:"
    INDEX 01 00:17:44
  TRACK 15 AUDIO
    TITLE "4:cjc173_4691"
    INDEX 01 00:17:64
  TRACK 16 AUDIO
    TITLE "0:"
    INDEX 01 00:20:42
  TRACK 17 AUDIO
    TITLE "5:cjc173_4692"
    INDEX 01 00:20:62
  TRACK 18 AUDIO
    TITLE "0:"
    INDEX 01 00:24:09
  TRACK 19 AUDIO
    TITLE "3:cjc173_4693"
    INDEX 01 00:24:56
  TRACK 20 AUDIO
    TITLE "0:"
    INDEX 01 00:26:18
  TRACK 21 AUDIO
    TITLE "4:cjc173_4694"
    INDEX 01 00:26:39
  TRACK 22 AUDIO
    TITLE "0:"
    INDEX 01 00:30:04
  TRACK 23 AUDIO
    TITLE "5:cjc173_4695"
    INDEX 01 00:30:23
  TRACK 24 AUDIO
    TITLE "0:"
    INDEX 01 00:34:64
  TRACK 25 AUDIO
    TITLE "3:cjc173_4696"
    INDEX 01 00:35:38
  TRACK 26 AUDIO
    TITLE "0:"
    INDEX 01 00:36:55
  TRACK 27 AUDIO
    TITLE "4:cjc173_4697"
    INDEX 01 00:36:73
  TRACK 28 AUDIO
    TITLE "0:"
    INDEX 01 00:38:38
  TRACK 29 AUDIO
    TITLE "5:cjc173_4698"
    INDEX 01 00:38:58
  TRACK 30 AUDIO
    TITLE "0:"
    INDEX 01 00:43:47
  TRACK 31 AUDIO
    TITLE "3:cjc173_4699"
    INDEX 01 00:44:17
  TRACK 32 AUDIO
    TITLE "0:"
    INDEX 01 00:45:17
  TRACK 33 AUDIO
    TITLE "4:cjc173_4700"
    INDEX 01 00:45:38
  TRACK 34 AUDIO
    TITLE "0:"
    INDEX 01 00:47:69
  TRACK 35 AUDIO
    TITLE "5:cjc173_4701"
    INDEX 01 00:48:13
  TRACK 36 AUDIO
    TITLE "0:"
    INDEX 01 00:52:62
  TRACK 37 AUDIO
    TITLE "3:cjc173_4702"
    INDEX 01 00:53:36
  TRACK 38 AUDIO
    TITLE "0:"
    INDEX 01 00:54:51
  TRACK 39 AUDIO
    TITLE "4:cjc173_4703"
    INDEX 01 00:54:71
  TRACK 40 AUDIO
    TITLE "0:"
    INDEX 01 00:59:46
  TRACK 41 AUDIO
    TITLE "5:cjc173_4704"
    INDEX 01 00:59:66
  TRACK 42 AUDIO
    TITLE "0:"
    INDEX 01 01:03:50
  TRACK 43 AUDIO
    TITLE "3:cjc173_4705"
    INDEX 01 01:04:22
  TRACK 44 AUDIO
    TITLE "0:"
    INDEX 01 01:05:39
  TRACK 45 AUDIO
    TITLE "4:cjc173_4706"
    INDEX 01 01:05:61
  TRACK 46 AUDIO
    TITLE "0:"
    INDEX 01 01:08:18
  TRACK 47 AUDIO
    TITLE "5:cjc173_4707"
    INDEX 01 01:08:39
  TRACK 48 AUDIO
    TITLE "0:"
    INDEX 01 01:13:11
  TRACK 49 AUDIO
    TITLE "3:cjc173_4708"
    INDEX 01 01:13:58
  TRACK 50 AUDIO
    TITLE "0:"
    INDEX 01 01:14:62
  TRACK 51 AUDIO
    TITLE "4:cjc173_4709"
    INDEX 01 01:15:10
  TRACK 52 AUDIO
    TITLE "0:"
    INDEX 01 01:18:65
  TRACK 53 AUDIO
    TITLE "5:cjc173_4710"
    INDEX 01 01:19:08
  TRACK 54 AUDIO
    TITLE "0:"
    INDEX 01 01:24:27
  TRACK 55 AUDIO
    TITLE "3:cjc173_4711"
    INDEX 01 01:24:72
  TRACK 56 AUDIO
    TITLE "0:"
    INDEX 01 01:26:18
  TRACK 57 AUDIO
    TITLE "4:cjc173_4712"
    INDEX 01 01:26:39
  TRACK 58 AUDIO
    TITLE "0:"
    INDEX 01 01:28:23
  TRACK 59 AUDIO
    TITLE "5:cjc173_4713"
    INDEX 01 01:28:42
  TRACK 60 AUDIO
    TITLE "0:"
    INDEX 01 01:33:08
